# xmcd CD database file
#
# Track frame offsets:
#	150
#	11055
#	24380
#	35642
#	46985
#	58627
#	70627
#	82180
#	96562
#	109687
#	121627
#	139692
#
# Disc length: 2009 seconds
#
# Revision: 0
# Processed by: cddbd v1.5.2PL0 Copyright (c) Steve Scherf et al.
# Submitted via: CD2WAV32(JP) R3.22
#
DISCID=9d07d70c
DTITLE=ジミー時田 - ジミー時田カントリー・ヒッツ
DYEAR=1993
DGENRE=Country
TTITLE0=北風
TTITLE1=テネシー・ワルツ
TTITLE2=ジャンバラヤ
TTITLE3=カウライジャ
TTITLE4=ユア・チーティン・ハート
TTITLE5=ロンサム・ホイッスル
TTITLE6=アイム・ムービン・オン
TTITLE7=サパー・タイム
TTITLE8=アイ・ソー・ザ・ライト
TTITLE9=ラブシック・ブルース
TTITLE10=サム・デイ
TTITLE11=ア・フール・サッチ・アズ・アイ
EXTD=
EXTT0=
EXTT1=
EXTT2=
EXTT3=
EXTT4=
EXTT5=
EXTT6=
EXTT7=
EXTT8=
EXTT9=
EXTT10=
EXTT11=
PLAYORDER=
